%TF.GenerationSoftware,KiCad,Pcbnew,7.0.10*%
%TF.CreationDate,2024-02-02T13:19:37-05:00*%
%TF.ProjectId,quad_radio_adapter,71756164-5f72-4616-9469-6f5f61646170,rev?*%
%TF.SameCoordinates,Original*%
%TF.FileFunction,Copper,L4,Inr*%
%TF.FilePolarity,Positive*%
%FSLAX46Y46*%
G04 Gerber Fmt 4.6, Leading zero omitted, Abs format (unit mm)*
G04 Created by KiCad (PCBNEW 7.0.10) date 2024-02-02 13:19:37*
%MOMM*%
%LPD*%
G01*
G04 APERTURE LIST*
%TA.AperFunction,ComponentPad*%
%ADD10C,4.400000*%
%TD*%
%TA.AperFunction,ViaPad*%
%ADD11C,0.400000*%
%TD*%
%TA.AperFunction,ViaPad*%
%ADD12C,0.500000*%
%TD*%
%TA.AperFunction,Conductor*%
%ADD13C,0.152400*%
%TD*%
G04 APERTURE END LIST*
D10*
%TO.N,GND*%
%TO.C,H1*%
X104000000Y-91000000D03*
%TD*%
%TO.N,GND*%
%TO.C,H2*%
X104000000Y-109000000D03*
%TD*%
D11*
%TO.N,GND*%
X106620000Y-105050000D03*
X107010200Y-97307400D03*
X94437200Y-103911400D03*
X103682800Y-101930200D03*
X94259400Y-93319600D03*
X94411800Y-104622600D03*
X103665800Y-103001782D03*
X98510000Y-92000000D03*
X104089200Y-101498400D03*
X103657400Y-102489000D03*
X104063800Y-96723200D03*
X94310200Y-94437200D03*
X106680000Y-100584000D03*
X101854000Y-99593400D03*
X94437200Y-102133400D03*
X103665800Y-103479600D03*
X106502200Y-96774000D03*
X103098600Y-104013000D03*
X103641983Y-103989183D03*
D12*
%TO.N,SBUS2_HERELINK*%
X107750000Y-102320000D03*
X98770000Y-104110000D03*
D11*
%TO.N,ETH_RADIO_RX_POSTMAG_P*%
X97200000Y-101788640D03*
%TO.N,ETH_RADIO_RX_POSTMAG_N*%
X97200000Y-102361360D03*
%TO.N,ETH_RADIO_TX_POSTMAG_P*%
X97917000Y-106680000D03*
%TO.N,ETH_RADIO_TX_POSTMAG_N*%
X97450000Y-106250000D03*
%TO.N,TELEM1_TX*%
X98348800Y-97078800D03*
X96799400Y-95885000D03*
%TO.N,+VIN_PROT_RADIO*%
X101244400Y-102209600D03*
X100741197Y-102209600D03*
%TO.N,RC_INPUT*%
X94480000Y-105870000D03*
X99360000Y-97280000D03*
%TO.N,Net-(D1-K)*%
X98653600Y-100482400D03*
X106629200Y-101200000D03*
%TO.N,Net-(IC1-FB)*%
X107696000Y-103632000D03*
X101854000Y-97612200D03*
%TD*%
D13*
%TO.N,Net-(IC1-FB)*%
X107696000Y-103632000D02*
X106934000Y-103632000D01*
X106934000Y-103632000D02*
X101854000Y-98552000D01*
X101854000Y-98552000D02*
X101854000Y-97612200D01*
%TD*%
M02*
