%TF.GenerationSoftware,KiCad,Pcbnew,7.0.10*%
%TF.CreationDate,2024-02-02T13:19:36-05:00*%
%TF.ProjectId,quad_radio_adapter,71756164-5f72-4616-9469-6f5f61646170,rev?*%
%TF.SameCoordinates,Original*%
%TF.FileFunction,Copper,L1,Top*%
%TF.FilePolarity,Positive*%
%FSLAX46Y46*%
G04 Gerber Fmt 4.6, Leading zero omitted, Abs format (unit mm)*
G04 Created by KiCad (PCBNEW 7.0.10) date 2024-02-02 13:19:36*
%MOMM*%
%LPD*%
G01*
G04 APERTURE LIST*
G04 Aperture macros list*
%AMRoundRect*
0 Rectangle with rounded corners*
0 $1 Rounding radius*
0 $2 $3 $4 $5 $6 $7 $8 $9 X,Y pos of 4 corners*
0 Add a 4 corners polygon primitive as box body*
4,1,4,$2,$3,$4,$5,$6,$7,$8,$9,$2,$3,0*
0 Add four circle primitives for the rounded corners*
1,1,$1+$1,$2,$3*
1,1,$1+$1,$4,$5*
1,1,$1+$1,$6,$7*
1,1,$1+$1,$8,$9*
0 Add four rect primitives between the rounded corners*
20,1,$1+$1,$2,$3,$4,$5,0*
20,1,$1+$1,$4,$5,$6,$7,0*
20,1,$1+$1,$6,$7,$8,$9,0*
20,1,$1+$1,$8,$9,$2,$3,0*%
G04 Aperture macros list end*
%TA.AperFunction,SMDPad,CuDef*%
%ADD10RoundRect,0.100000X-0.130000X-0.100000X0.130000X-0.100000X0.130000X0.100000X-0.130000X0.100000X0*%
%TD*%
%TA.AperFunction,SMDPad,CuDef*%
%ADD11RoundRect,0.250000X-0.325000X-0.650000X0.325000X-0.650000X0.325000X0.650000X-0.325000X0.650000X0*%
%TD*%
%TA.AperFunction,SMDPad,CuDef*%
%ADD12RoundRect,0.225000X0.225000X0.250000X-0.225000X0.250000X-0.225000X-0.250000X0.225000X-0.250000X0*%
%TD*%
%TA.AperFunction,ComponentPad*%
%ADD13C,4.400000*%
%TD*%
%TA.AperFunction,SMDPad,CuDef*%
%ADD14R,3.400000X1.300000*%
%TD*%
%TA.AperFunction,SMDPad,CuDef*%
%ADD15RoundRect,0.218750X0.218750X0.256250X-0.218750X0.256250X-0.218750X-0.256250X0.218750X-0.256250X0*%
%TD*%
%TA.AperFunction,SMDPad,CuDef*%
%ADD16RoundRect,0.150000X-0.700000X0.150000X-0.700000X-0.150000X0.700000X-0.150000X0.700000X0.150000X0*%
%TD*%
%TA.AperFunction,SMDPad,CuDef*%
%ADD17RoundRect,0.250000X-1.100000X0.250000X-1.100000X-0.250000X1.100000X-0.250000X1.100000X0.250000X0*%
%TD*%
%TA.AperFunction,SMDPad,CuDef*%
%ADD18RoundRect,0.100000X0.130000X0.100000X-0.130000X0.100000X-0.130000X-0.100000X0.130000X-0.100000X0*%
%TD*%
%TA.AperFunction,SMDPad,CuDef*%
%ADD19RoundRect,0.250000X-0.650000X1.000000X-0.650000X-1.000000X0.650000X-1.000000X0.650000X1.000000X0*%
%TD*%
%TA.AperFunction,SMDPad,CuDef*%
%ADD20R,0.860000X0.320000*%
%TD*%
%TA.AperFunction,SMDPad,CuDef*%
%ADD21R,2.600000X3.000000*%
%TD*%
%TA.AperFunction,SMDPad,CuDef*%
%ADD22RoundRect,0.250000X-1.100000X0.325000X-1.100000X-0.325000X1.100000X-0.325000X1.100000X0.325000X0*%
%TD*%
%TA.AperFunction,SMDPad,CuDef*%
%ADD23RoundRect,0.100000X-0.100000X0.130000X-0.100000X-0.130000X0.100000X-0.130000X0.100000X0.130000X0*%
%TD*%
%TA.AperFunction,ViaPad*%
%ADD24C,0.400000*%
%TD*%
%TA.AperFunction,ViaPad*%
%ADD25C,0.500000*%
%TD*%
%TA.AperFunction,Conductor*%
%ADD26C,0.127000*%
%TD*%
%TA.AperFunction,Conductor*%
%ADD27C,0.254000*%
%TD*%
%TA.AperFunction,Conductor*%
%ADD28C,0.132080*%
%TD*%
%TA.AperFunction,Conductor*%
%ADD29C,0.152400*%
%TD*%
%TA.AperFunction,Conductor*%
%ADD30C,0.381000*%
%TD*%
%TA.AperFunction,Conductor*%
%ADD31C,0.508000*%
%TD*%
%TA.AperFunction,Conductor*%
%ADD32C,0.635000*%
%TD*%
G04 APERTURE END LIST*
D10*
%TO.P,R2,1*%
%TO.N,+7.5V*%
X100492600Y-97739200D03*
%TO.P,R2,2*%
%TO.N,Net-(IC1-FB)*%
X101132600Y-97739200D03*
%TD*%
D11*
%TO.P,C2,1*%
%TO.N,+7.5V*%
X100480600Y-99161600D03*
%TO.P,C2,2*%
%TO.N,GND*%
X103430600Y-99161600D03*
%TD*%
D12*
%TO.P,C3,1*%
%TO.N,Net-(IC1-BOOT)*%
X100225000Y-101250000D03*
%TO.P,C3,2*%
%TO.N,Net-(D1-K)*%
X98675000Y-101250000D03*
%TD*%
D13*
%TO.P,H1,1,1*%
%TO.N,GND*%
X104000000Y-91000000D03*
%TD*%
D10*
%TO.P,R3,1*%
%TO.N,Net-(IC1-FB)*%
X102499200Y-97713800D03*
%TO.P,R3,2*%
%TO.N,GND*%
X103139200Y-97713800D03*
%TD*%
D14*
%TO.P,L1,1,1*%
%TO.N,Net-(D1-K)*%
X101676200Y-94403200D03*
%TO.P,L1,2,2*%
%TO.N,+7.5V*%
X101676200Y-96503200D03*
%TD*%
D15*
%TO.P,D2,1,K*%
%TO.N,Net-(D2-K)*%
X100177700Y-90601800D03*
%TO.P,D2,2,A*%
%TO.N,+7.5V*%
X98602700Y-90601800D03*
%TD*%
D13*
%TO.P,H2,1,1*%
%TO.N,GND*%
X104000000Y-109000000D03*
%TD*%
D16*
%TO.P,J3,1,Pin_1*%
%TO.N,+7.5V*%
X95715238Y-93150000D03*
%TO.P,J3,2,Pin_2*%
%TO.N,GND*%
X95715238Y-94400000D03*
D17*
%TO.P,J3,MP*%
%TO.N,N/C*%
X92515238Y-91300000D03*
X92515238Y-96250000D03*
%TD*%
D18*
%TO.P,C1,1*%
%TO.N,Net-(IC1-SS)*%
X105806200Y-105562400D03*
%TO.P,C1,2*%
%TO.N,GND*%
X105166200Y-105562400D03*
%TD*%
D19*
%TO.P,D1,1,K*%
%TO.N,Net-(D1-K)*%
X106222800Y-94945200D03*
%TO.P,D1,2,A*%
%TO.N,GND*%
X106222800Y-98945200D03*
%TD*%
D20*
%TO.P,IC1,1,BOOT*%
%TO.N,Net-(IC1-BOOT)*%
X102030000Y-101200000D03*
%TO.P,IC1,2,VIN_1*%
%TO.N,+VIN_PROT_RADIO*%
X102030000Y-102000000D03*
%TO.P,IC1,3,VIN_2*%
X102030000Y-102800000D03*
%TO.P,IC1,4,EN*%
%TO.N,unconnected-(IC1-EN-Pad4)*%
X102030000Y-103600000D03*
%TO.P,IC1,5,RT/SYNC*%
%TO.N,Net-(IC1-RT{slash}SYNC)*%
X102030000Y-104400000D03*
%TO.P,IC1,6,SS*%
%TO.N,Net-(IC1-SS)*%
X105900000Y-104400000D03*
%TO.P,IC1,7,FB*%
%TO.N,Net-(IC1-FB)*%
X105900000Y-103600000D03*
%TO.P,IC1,8,PGOOD*%
%TO.N,unconnected-(IC1-PGOOD-Pad8)*%
X105900000Y-102800000D03*
%TO.P,IC1,9,GND*%
%TO.N,GND*%
X105900000Y-102000000D03*
%TO.P,IC1,10,SW*%
%TO.N,Net-(D1-K)*%
X105900000Y-101200000D03*
D21*
%TO.P,IC1,11,EP*%
%TO.N,GND*%
X103965000Y-102800000D03*
%TD*%
D22*
%TO.P,C4,1*%
%TO.N,+VIN_PROT_RADIO*%
X99650000Y-103025000D03*
%TO.P,C4,2*%
%TO.N,GND*%
X99650000Y-105975000D03*
%TD*%
D16*
%TO.P,J2,1,Pin_1*%
%TO.N,ETH_RADIO_RX_POSTMAG_P*%
X95715238Y-101450000D03*
%TO.P,J2,2,Pin_2*%
%TO.N,ETH_RADIO_RX_POSTMAG_N*%
X95715238Y-102700000D03*
%TO.P,J2,3,Pin_3*%
%TO.N,GND*%
X95715238Y-103950000D03*
%TO.P,J2,4,Pin_4*%
%TO.N,ETH_RADIO_TX_POSTMAG_P*%
X95715238Y-105200000D03*
%TO.P,J2,5,Pin_5*%
%TO.N,ETH_RADIO_TX_POSTMAG_N*%
X95715238Y-106450000D03*
D17*
%TO.P,J2,MP*%
%TO.N,N/C*%
X92515238Y-99600000D03*
X92515238Y-108300000D03*
%TD*%
D23*
%TO.P,R1,1*%
%TO.N,Net-(IC1-RT{slash}SYNC)*%
X101981000Y-105369400D03*
%TO.P,R1,2*%
%TO.N,GND*%
X101981000Y-106009400D03*
%TD*%
D18*
%TO.P,R4,1*%
%TO.N,Net-(D2-K)*%
X99786400Y-91998800D03*
%TO.P,R4,2*%
%TO.N,GND*%
X99146400Y-91998800D03*
%TD*%
D24*
%TO.N,GND*%
X106620000Y-105050000D03*
X107010200Y-97307400D03*
X94437200Y-103911400D03*
X103682800Y-101930200D03*
X94259400Y-93319600D03*
X94411800Y-104622600D03*
X103665800Y-103001782D03*
X98510000Y-92000000D03*
X104089200Y-101498400D03*
X103657400Y-102489000D03*
X104063800Y-96723200D03*
X94310200Y-94437200D03*
X106680000Y-100584000D03*
X101854000Y-99593400D03*
X94437200Y-102133400D03*
X103665800Y-103479600D03*
X106502200Y-96774000D03*
X103098600Y-104013000D03*
X103641983Y-103989183D03*
D25*
%TO.N,SBUS2_HERELINK*%
X107750000Y-102320000D03*
X98770000Y-104110000D03*
D24*
%TO.N,ETH_RADIO_RX_POSTMAG_P*%
X97200000Y-101788640D03*
%TO.N,ETH_RADIO_RX_POSTMAG_N*%
X97200000Y-102361360D03*
%TO.N,ETH_RADIO_TX_POSTMAG_P*%
X97917000Y-106680000D03*
%TO.N,ETH_RADIO_TX_POSTMAG_N*%
X97450000Y-106250000D03*
%TO.N,TELEM1_TX*%
X98348800Y-97078800D03*
X96799400Y-95885000D03*
%TO.N,+VIN_PROT_RADIO*%
X101244400Y-102209600D03*
X100741197Y-102209600D03*
%TO.N,RC_INPUT*%
X94480000Y-105870000D03*
X99360000Y-97280000D03*
%TO.N,Net-(D1-K)*%
X98653600Y-100482400D03*
X106629200Y-101200000D03*
%TO.N,Net-(IC1-FB)*%
X107696000Y-103632000D03*
X101854000Y-97612200D03*
%TD*%
D26*
%TO.N,GND*%
X99146400Y-91998800D02*
X98511200Y-91998800D01*
D27*
X94475800Y-103950000D02*
X94437200Y-103911400D01*
X104765000Y-102000000D02*
X103965000Y-102800000D01*
X95715238Y-103950000D02*
X94475800Y-103950000D01*
D26*
X98511200Y-91998800D02*
X98510000Y-92000000D01*
D27*
X105900000Y-102000000D02*
X104765000Y-102000000D01*
X94347400Y-94400000D02*
X94310200Y-94437200D01*
X95715238Y-94400000D02*
X94347400Y-94400000D01*
D28*
%TO.N,ETH_RADIO_RX_POSTMAG_P*%
X96187837Y-101922599D02*
X97066041Y-101922599D01*
X97066041Y-101922599D02*
X97200000Y-101788640D01*
X95715238Y-101450000D02*
X96187837Y-101922599D01*
%TO.N,ETH_RADIO_RX_POSTMAG_N*%
X95715238Y-102700000D02*
X96187837Y-102227401D01*
X97066041Y-102227401D02*
X97200000Y-102361360D01*
X96187837Y-102227401D02*
X97066041Y-102227401D01*
%TO.N,ETH_RADIO_TX_POSTMAG_P*%
X97917000Y-106194815D02*
X97917000Y-106680000D01*
X96737838Y-105672600D02*
X97394785Y-105672600D01*
X97394785Y-105672600D02*
X97917000Y-106194815D01*
X95715238Y-105200000D02*
X96265238Y-105200000D01*
X96265238Y-105200000D02*
X96737838Y-105672600D01*
%TO.N,ETH_RADIO_TX_POSTMAG_N*%
X96265238Y-106450000D02*
X96737838Y-105977400D01*
X95715238Y-106450000D02*
X96265238Y-106450000D01*
X96737838Y-105977400D02*
X97287400Y-105977400D01*
X97450000Y-106140000D02*
X97450000Y-106250000D01*
X97287400Y-105977400D02*
X97450000Y-106140000D01*
D29*
%TO.N,TELEM1_TX*%
X97993200Y-97078800D02*
X98348800Y-97078800D01*
X96799400Y-95885000D02*
X97993200Y-97078800D01*
D30*
%TO.N,+VIN_PROT_RADIO*%
X102030000Y-102800000D02*
X101834800Y-102800000D01*
X102030000Y-102000000D02*
X101454000Y-102000000D01*
X100465400Y-102209600D02*
X99650000Y-103025000D01*
X101454000Y-102000000D02*
X101244400Y-102209600D01*
X100741197Y-102209600D02*
X100465400Y-102209600D01*
X101834800Y-102800000D02*
X101244400Y-102209600D01*
D31*
%TO.N,+7.5V*%
X100480600Y-99161600D02*
X100480600Y-97751200D01*
D32*
X95715238Y-93150000D02*
X96565237Y-93150000D01*
D31*
X97690000Y-94274764D02*
X97690000Y-91514500D01*
D32*
X99918437Y-96503200D02*
X101676200Y-96503200D01*
D31*
X97690000Y-91514500D02*
X98602700Y-90601800D01*
D32*
X96565237Y-93150000D02*
X99918437Y-96503200D01*
D31*
X100480600Y-97751200D02*
X100492600Y-97739200D01*
X100492600Y-96503200D02*
X101676200Y-96503200D01*
X100492600Y-97739200D02*
X100492600Y-96503200D01*
X96565236Y-93150000D02*
X97690000Y-94274764D01*
X95715238Y-93150000D02*
X96565236Y-93150000D01*
D29*
%TO.N,Net-(IC1-SS)*%
X105420600Y-105176800D02*
X105806200Y-105562400D01*
X105420600Y-104879400D02*
X105420600Y-105176800D01*
X105900000Y-104400000D02*
X105420600Y-104879400D01*
D27*
%TO.N,Net-(IC1-BOOT)*%
X101980000Y-101250000D02*
X102030000Y-101200000D01*
X100225000Y-101250000D02*
X101980000Y-101250000D01*
%TO.N,Net-(D1-K)*%
X98675000Y-100503800D02*
X98653600Y-100482400D01*
X98675000Y-101250000D02*
X98675000Y-100503800D01*
D30*
X107207000Y-101200000D02*
X107772200Y-100634800D01*
X101676200Y-94403200D02*
X105680800Y-94403200D01*
X105680800Y-94403200D02*
X106222800Y-94945200D01*
X105900000Y-101200000D02*
X107207000Y-101200000D01*
X107772200Y-96494600D02*
X106222800Y-94945200D01*
X107772200Y-100634800D02*
X107772200Y-96494600D01*
D29*
%TO.N,Net-(IC1-RT{slash}SYNC)*%
X102030000Y-105320400D02*
X101981000Y-105369400D01*
X102030000Y-104400000D02*
X102030000Y-105320400D01*
%TO.N,Net-(IC1-FB)*%
X105900000Y-103600000D02*
X107664000Y-103600000D01*
X101727000Y-97739200D02*
X101854000Y-97612200D01*
X107664000Y-103600000D02*
X107696000Y-103632000D01*
X101132600Y-97739200D02*
X101727000Y-97739200D01*
X102499200Y-97713800D02*
X101955600Y-97713800D01*
X101955600Y-97713800D02*
X101854000Y-97612200D01*
D27*
%TO.N,Net-(D2-K)*%
X99786400Y-91998800D02*
X99786400Y-91780400D01*
X100177700Y-91389100D02*
X100177700Y-90601800D01*
X99786400Y-91780400D02*
X100177700Y-91389100D01*
%TD*%
%TA.AperFunction,Conductor*%
%TO.N,GND*%
G36*
X106877039Y-97555685D02*
G01*
X106922794Y-97608489D01*
X106934000Y-97660000D01*
X106934000Y-99750040D01*
X106914315Y-99817079D01*
X106871521Y-99857702D01*
X105156000Y-100837999D01*
X105156000Y-104393999D01*
X105244844Y-104571687D01*
X105257219Y-104640452D01*
X105237035Y-104696036D01*
X105223865Y-104715745D01*
X105223864Y-104715744D01*
X105223853Y-104715762D01*
X105180866Y-104780095D01*
X105180865Y-104780099D01*
X105161114Y-104879397D01*
X105161114Y-104879399D01*
X105163717Y-104892484D01*
X105166100Y-104916677D01*
X105166100Y-105139518D01*
X105163718Y-105163706D01*
X105161114Y-105176799D01*
X105161114Y-105176800D01*
X105164910Y-105195884D01*
X105164911Y-105195892D01*
X105179671Y-105270097D01*
X105179672Y-105270097D01*
X105179672Y-105270099D01*
X105180866Y-105276101D01*
X105222916Y-105339034D01*
X105222917Y-105339035D01*
X105226301Y-105344099D01*
X105226303Y-105344102D01*
X105237115Y-105360283D01*
X105248206Y-105367694D01*
X105266997Y-105383115D01*
X105326319Y-105442437D01*
X105361581Y-105477698D01*
X105395066Y-105539021D01*
X105397900Y-105565380D01*
X105397900Y-105703959D01*
X105400599Y-105727221D01*
X105403048Y-105736221D01*
X105401950Y-105736519D01*
X105410000Y-105774669D01*
X105410000Y-105828412D01*
X105390315Y-105895451D01*
X105337511Y-105941206D01*
X105324946Y-105946137D01*
X102248968Y-106963725D01*
X102210022Y-106970000D01*
X98396164Y-106970000D01*
X98329125Y-106950315D01*
X98283370Y-106897511D01*
X98273426Y-106828353D01*
X98279755Y-106808124D01*
X98278255Y-106807637D01*
X98281271Y-106798355D01*
X98300016Y-106680002D01*
X98300016Y-106679997D01*
X98281271Y-106561644D01*
X98281270Y-106561642D01*
X98226866Y-106454869D01*
X98226862Y-106454865D01*
X98226861Y-106454863D01*
X98197659Y-106425661D01*
X98164174Y-106364338D01*
X98161340Y-106337980D01*
X98161340Y-106231092D01*
X98163723Y-106206899D01*
X98166127Y-106194815D01*
X98147164Y-106099479D01*
X98106792Y-106039058D01*
X98106791Y-106039057D01*
X98103407Y-106033992D01*
X98103407Y-106033991D01*
X98103402Y-106033985D01*
X98093159Y-106018655D01*
X98084524Y-106010020D01*
X98086727Y-106007816D01*
X98054302Y-105969013D01*
X98044000Y-105919529D01*
X98044000Y-105788000D01*
X98063685Y-105720961D01*
X98116489Y-105675206D01*
X98168000Y-105664000D01*
X101600662Y-105664000D01*
X101667701Y-105683685D01*
X101688343Y-105700319D01*
X101720998Y-105732974D01*
X101816179Y-105775001D01*
X101839444Y-105777700D01*
X101839446Y-105777700D01*
X102122554Y-105777700D01*
X102122556Y-105777700D01*
X102145821Y-105775001D01*
X102241002Y-105732974D01*
X102314574Y-105659402D01*
X102355565Y-105566565D01*
X102400649Y-105513193D01*
X102444675Y-105495064D01*
X102870000Y-105410000D01*
X102870000Y-97983594D01*
X102880565Y-97933508D01*
X102904801Y-97878621D01*
X102907500Y-97855356D01*
X102907500Y-97660000D01*
X102927185Y-97592961D01*
X102979989Y-97547206D01*
X103031500Y-97536000D01*
X106810000Y-97536000D01*
X106877039Y-97555685D01*
G37*
%TD.AperFunction*%
%TD*%
M02*
