%TF.GenerationSoftware,KiCad,Pcbnew,7.0.10*%
%TF.CreationDate,2024-02-02T13:19:37-05:00*%
%TF.ProjectId,quad_radio_adapter,71756164-5f72-4616-9469-6f5f61646170,rev?*%
%TF.SameCoordinates,Original*%
%TF.FileFunction,Copper,L6,Bot*%
%TF.FilePolarity,Positive*%
%FSLAX46Y46*%
G04 Gerber Fmt 4.6, Leading zero omitted, Abs format (unit mm)*
G04 Created by KiCad (PCBNEW 7.0.10) date 2024-02-02 13:19:37*
%MOMM*%
%LPD*%
G01*
G04 APERTURE LIST*
G04 Aperture macros list*
%AMRoundRect*
0 Rectangle with rounded corners*
0 $1 Rounding radius*
0 $2 $3 $4 $5 $6 $7 $8 $9 X,Y pos of 4 corners*
0 Add a 4 corners polygon primitive as box body*
4,1,4,$2,$3,$4,$5,$6,$7,$8,$9,$2,$3,0*
0 Add four circle primitives for the rounded corners*
1,1,$1+$1,$2,$3*
1,1,$1+$1,$4,$5*
1,1,$1+$1,$6,$7*
1,1,$1+$1,$8,$9*
0 Add four rect primitives between the rounded corners*
20,1,$1+$1,$2,$3,$4,$5,0*
20,1,$1+$1,$4,$5,$6,$7,0*
20,1,$1+$1,$6,$7,$8,$9,0*
20,1,$1+$1,$8,$9,$2,$3,0*%
G04 Aperture macros list end*
%TA.AperFunction,ComponentPad*%
%ADD10C,4.400000*%
%TD*%
%TA.AperFunction,SMDPad,CuDef*%
%ADD11RoundRect,0.150000X0.700000X-0.150000X0.700000X0.150000X-0.700000X0.150000X-0.700000X-0.150000X0*%
%TD*%
%TA.AperFunction,SMDPad,CuDef*%
%ADD12RoundRect,0.250000X1.100000X-0.250000X1.100000X0.250000X-1.100000X0.250000X-1.100000X-0.250000X0*%
%TD*%
%TA.AperFunction,SMDPad,CuDef*%
%ADD13R,0.660000X0.230000*%
%TD*%
%TA.AperFunction,SMDPad,CuDef*%
%ADD14R,0.660000X0.350000*%
%TD*%
%TA.AperFunction,ViaPad*%
%ADD15C,0.400000*%
%TD*%
%TA.AperFunction,ViaPad*%
%ADD16C,0.500000*%
%TD*%
%TA.AperFunction,Conductor*%
%ADD17C,0.254000*%
%TD*%
%TA.AperFunction,Conductor*%
%ADD18C,0.152400*%
%TD*%
%TA.AperFunction,Conductor*%
%ADD19C,0.203200*%
%TD*%
%TA.AperFunction,Conductor*%
%ADD20C,0.304800*%
%TD*%
%TA.AperFunction,Conductor*%
%ADD21C,0.132080*%
%TD*%
%TA.AperFunction,Conductor*%
%ADD22C,0.381000*%
%TD*%
%TA.AperFunction,Conductor*%
%ADD23C,0.127000*%
%TD*%
G04 APERTURE END LIST*
D10*
%TO.P,H1,1,1*%
%TO.N,GND*%
X104000000Y-91000000D03*
%TD*%
%TO.P,H2,1,1*%
%TO.N,GND*%
X104000000Y-109000000D03*
%TD*%
D11*
%TO.P,J4,1,Pin_1*%
%TO.N,RC_INPUT*%
X95765238Y-105900000D03*
%TO.P,J4,2,Pin_2*%
%TO.N,GND*%
X95765238Y-104650000D03*
%TO.P,J4,3,Pin_3*%
%TO.N,SBUS2_HERELINK*%
X95765238Y-103400000D03*
%TO.P,J4,4,Pin_4*%
%TO.N,GND*%
X95765238Y-102150000D03*
D12*
%TO.P,J4,MP*%
%TO.N,N/C*%
X92565238Y-107750000D03*
X92565238Y-100300000D03*
%TD*%
D13*
%TO.P,J1,1,Pin_1*%
%TO.N,GND*%
X105355000Y-97200000D03*
%TO.P,J1,2,Pin_2*%
X105355000Y-97600000D03*
%TO.P,J1,3,Pin_3*%
X105355000Y-98000000D03*
%TO.P,J1,4,Pin_4*%
X105355000Y-98400000D03*
%TO.P,J1,5,Pin_5*%
X105355000Y-98800000D03*
%TO.P,J1,6,Pin_6*%
%TO.N,unconnected-(J1-Pin_6-Pad6)*%
X105355000Y-99200000D03*
%TO.P,J1,7,Pin_7*%
%TO.N,SBUS2_HERELINK*%
X105355000Y-99600000D03*
%TO.P,J1,8,Pin_8*%
%TO.N,GND*%
X105355000Y-100000000D03*
%TO.P,J1,9,Pin_9*%
X105355000Y-100400000D03*
%TO.P,J1,10,Pin_10*%
X105355000Y-100800000D03*
%TO.P,J1,11,Pin_11*%
X105355000Y-101200000D03*
%TO.P,J1,12,Pin_12*%
%TO.N,ETH_RADIO_RX_POSTMAG_P*%
X105355000Y-101600000D03*
%TO.P,J1,13,Pin_13*%
%TO.N,ETH_RADIO_RX_POSTMAG_N*%
X105355000Y-102000000D03*
%TO.P,J1,14,Pin_14*%
%TO.N,ETH_RADIO_TX_POSTMAG_P*%
X105355000Y-102400000D03*
%TO.P,J1,15,Pin_15*%
%TO.N,ETH_RADIO_TX_POSTMAG_N*%
X105355000Y-102800000D03*
%TO.P,J1,16,Pin_16*%
%TO.N,RC_INPUT*%
X102645000Y-97200000D03*
%TO.P,J1,17,Pin_17*%
%TO.N,GND*%
X102645000Y-97600000D03*
%TO.P,J1,18,Pin_18*%
%TO.N,TELEM1_TX*%
X102645000Y-98000000D03*
%TO.P,J1,19,Pin_19*%
%TO.N,TELEM1_RX*%
X102645000Y-98400000D03*
%TO.P,J1,20,Pin_20*%
%TO.N,unconnected-(J1-Pin_20-Pad20)*%
X102645000Y-98800000D03*
%TO.P,J1,21,Pin_21*%
%TO.N,unconnected-(J1-Pin_21-Pad21)*%
X102645000Y-99200000D03*
%TO.P,J1,22,Pin_22*%
%TO.N,GND*%
X102645000Y-99600000D03*
%TO.P,J1,23,Pin_23*%
%TO.N,+VIN_PROT_RADIO*%
X102645000Y-100000000D03*
%TO.P,J1,24,Pin_24*%
X102645000Y-100400000D03*
%TO.P,J1,25,Pin_25*%
X102645000Y-100800000D03*
%TO.P,J1,26,Pin_26*%
X102645000Y-101200000D03*
%TO.P,J1,27,Pin_27*%
X102645000Y-101600000D03*
%TO.P,J1,28,Pin_28*%
X102645000Y-102000000D03*
%TO.P,J1,29,Pin_29*%
X102645000Y-102400000D03*
%TO.P,J1,30,Pin_30*%
X102645000Y-102800000D03*
D14*
%TO.P,J1,SH,SH*%
%TO.N,GND*%
X105355000Y-96725000D03*
X102645000Y-96725000D03*
X105355000Y-103275000D03*
X102645000Y-103275000D03*
%TD*%
D11*
%TO.P,J5,1,Pin_1*%
%TO.N,TELEM1_TX*%
X95665238Y-95850000D03*
%TO.P,J5,2,Pin_2*%
%TO.N,TELEM1_RX*%
X95665238Y-94600000D03*
%TO.P,J5,3,Pin_3*%
%TO.N,GND*%
X95665238Y-93350000D03*
D12*
%TO.P,J5,MP*%
%TO.N,N/C*%
X92465238Y-97700000D03*
X92465238Y-91500000D03*
%TD*%
D15*
%TO.N,GND*%
X106620000Y-105050000D03*
X107010200Y-97307400D03*
X94437200Y-103911400D03*
X103682800Y-101930200D03*
X94259400Y-93319600D03*
X94411800Y-104622600D03*
X103665800Y-103001782D03*
X98510000Y-92000000D03*
X104089200Y-101498400D03*
X103657400Y-102489000D03*
X104063800Y-96723200D03*
X94310200Y-94437200D03*
X106680000Y-100584000D03*
X101854000Y-99593400D03*
X94437200Y-102133400D03*
X103665800Y-103479600D03*
X106502200Y-96774000D03*
X103098600Y-104013000D03*
X103641983Y-103989183D03*
D16*
%TO.N,SBUS2_HERELINK*%
X107750000Y-102320000D03*
X98770000Y-104110000D03*
D15*
%TO.N,ETH_RADIO_RX_POSTMAG_P*%
X97200000Y-101788640D03*
%TO.N,ETH_RADIO_RX_POSTMAG_N*%
X97200000Y-102361360D03*
%TO.N,ETH_RADIO_TX_POSTMAG_P*%
X97917000Y-106680000D03*
%TO.N,ETH_RADIO_TX_POSTMAG_N*%
X97450000Y-106250000D03*
%TO.N,TELEM1_TX*%
X98348800Y-97078800D03*
X96799400Y-95885000D03*
%TO.N,+VIN_PROT_RADIO*%
X101244400Y-102209600D03*
X100741197Y-102209600D03*
%TO.N,RC_INPUT*%
X94480000Y-105870000D03*
X99360000Y-97280000D03*
%TO.N,Net-(D1-K)*%
X98653600Y-100482400D03*
X106629200Y-101200000D03*
%TO.N,Net-(IC1-FB)*%
X107696000Y-103632000D03*
X101854000Y-97612200D03*
%TD*%
D17*
%TO.N,GND*%
X105355000Y-103785000D02*
X106620000Y-105050000D01*
X105355000Y-103275000D02*
X105355000Y-103785000D01*
D18*
X102645000Y-103559400D02*
X103098600Y-104013000D01*
D19*
X106496000Y-100400000D02*
X106680000Y-100584000D01*
X105355000Y-101200000D02*
X105355000Y-100400000D01*
D20*
X106453200Y-96725000D02*
X106502200Y-96774000D01*
D18*
X102645000Y-97600000D02*
X103644200Y-97600000D01*
D20*
X104062000Y-96725000D02*
X104063800Y-96723200D01*
D18*
X103644200Y-97600000D02*
X104063800Y-97180400D01*
X101860600Y-99600000D02*
X101854000Y-99593400D01*
D20*
X102645000Y-96725000D02*
X104062000Y-96725000D01*
D17*
X94439200Y-104650000D02*
X94411800Y-104622600D01*
D19*
X105355000Y-100000000D02*
X105355000Y-100400000D01*
D18*
X104063800Y-97180400D02*
X104063800Y-96723200D01*
D17*
X95765238Y-104650000D02*
X94439200Y-104650000D01*
X95765238Y-102150000D02*
X94453800Y-102150000D01*
D20*
X105355000Y-96725000D02*
X106453200Y-96725000D01*
D17*
X94453800Y-102150000D02*
X94437200Y-102133400D01*
X95665238Y-93350000D02*
X94289800Y-93350000D01*
D20*
X105355000Y-98000000D02*
X106317600Y-98000000D01*
D19*
X105355000Y-100400000D02*
X106496000Y-100400000D01*
D20*
X105355000Y-98800000D02*
X105355000Y-96725000D01*
D17*
X94289800Y-93350000D02*
X94259400Y-93319600D01*
D18*
X102645000Y-103275000D02*
X102645000Y-103559400D01*
X102645000Y-99600000D02*
X101860600Y-99600000D01*
D20*
X106317600Y-98000000D02*
X107010200Y-97307400D01*
D18*
%TO.N,SBUS2_HERELINK*%
X98060000Y-103400000D02*
X98770000Y-104110000D01*
X107750000Y-99870000D02*
X107750000Y-102320000D01*
X95765238Y-103400000D02*
X98060000Y-103400000D01*
X107480000Y-99600000D02*
X107750000Y-99870000D01*
X105355000Y-99600000D02*
X107480000Y-99600000D01*
D21*
%TO.N,ETH_RADIO_RX_POSTMAG_P*%
X105092400Y-101647600D02*
X105140000Y-101600000D01*
X104766872Y-101647600D02*
X105092400Y-101647600D01*
X103686872Y-104797600D02*
X104237600Y-104246872D01*
X105140000Y-101600000D02*
X105355000Y-101600000D01*
X104237600Y-104246872D02*
X104237600Y-102176872D01*
X97200000Y-101788640D02*
X97333959Y-101922599D01*
X97333959Y-101922599D02*
X98448127Y-101922599D01*
X104237600Y-102176872D02*
X104766872Y-101647600D01*
X101323128Y-104797600D02*
X103686872Y-104797600D01*
X98448127Y-101922599D02*
X101323128Y-104797600D01*
%TO.N,ETH_RADIO_RX_POSTMAG_N*%
X101196872Y-105102400D02*
X103813128Y-105102400D01*
X105140000Y-102000000D02*
X105355000Y-102000000D01*
X97333959Y-102227401D02*
X98321873Y-102227401D01*
X105092400Y-101952400D02*
X105140000Y-102000000D01*
X97200000Y-102361360D02*
X97333959Y-102227401D01*
X104542400Y-102303128D02*
X104893128Y-101952400D01*
X104893128Y-101952400D02*
X105092400Y-101952400D01*
X103813128Y-105102400D02*
X104542400Y-104373128D01*
X98321873Y-102227401D02*
X101196872Y-105102400D01*
X104542400Y-104373128D02*
X104542400Y-102303128D01*
%TO.N,ETH_RADIO_TX_POSTMAG_P*%
X105355000Y-102400000D02*
X105850001Y-102400000D01*
X99533128Y-106302400D02*
X99223128Y-106612400D01*
X106283128Y-102447600D02*
X106872400Y-103036872D01*
X99223128Y-106612400D02*
X97984600Y-106612400D01*
X107592400Y-105463128D02*
X106753128Y-106302400D01*
X106872400Y-103036872D02*
X106872400Y-103886872D01*
X105850001Y-102400000D02*
X105897601Y-102447600D01*
X105897601Y-102447600D02*
X106283128Y-102447600D01*
X97984600Y-106612400D02*
X97917000Y-106680000D01*
X107592400Y-104606872D02*
X107592400Y-105463128D01*
X106753128Y-106302400D02*
X99533128Y-106302400D01*
X106872400Y-103886872D02*
X107592400Y-104606872D01*
%TO.N,ETH_RADIO_TX_POSTMAG_N*%
X107287600Y-105336872D02*
X106626872Y-105997600D01*
X106626872Y-105997600D02*
X99406872Y-105997600D01*
X106156872Y-102752400D02*
X106567600Y-103163128D01*
X105897601Y-102752400D02*
X106156872Y-102752400D01*
X99096872Y-106307600D02*
X97507600Y-106307600D01*
X99406872Y-105997600D02*
X99096872Y-106307600D01*
X105355000Y-102800000D02*
X105850001Y-102800000D01*
X105850001Y-102800000D02*
X105897601Y-102752400D01*
X106567600Y-103163128D02*
X106567600Y-104013128D01*
X106567600Y-104013128D02*
X107287600Y-104733128D01*
X107287600Y-104733128D02*
X107287600Y-105336872D01*
X97507600Y-106307600D02*
X97450000Y-106250000D01*
D18*
%TO.N,TELEM1_TX*%
X95665238Y-95850000D02*
X96764400Y-95850000D01*
X98348800Y-97078800D02*
X99288600Y-98018600D01*
X96764400Y-95850000D02*
X96799400Y-95885000D01*
X102626400Y-98018600D02*
X102645000Y-98000000D01*
X99288600Y-98018600D02*
X102626400Y-98018600D01*
%TO.N,TELEM1_RX*%
X97815400Y-95900163D02*
X96515237Y-94600000D01*
X102644600Y-98399600D02*
X99085400Y-98399600D01*
X99085400Y-98399600D02*
X97815400Y-97129600D01*
X97815400Y-97129600D02*
X97815400Y-95900163D01*
X96515237Y-94600000D02*
X95665238Y-94600000D01*
X102645000Y-98400000D02*
X102644600Y-98399600D01*
D22*
%TO.N,+VIN_PROT_RADIO*%
X101244400Y-101985600D02*
X101244400Y-102209600D01*
D18*
X102645000Y-100000000D02*
X102645000Y-102800000D01*
D20*
X101244400Y-102209600D02*
X101249600Y-102209600D01*
D22*
X101454000Y-102000000D02*
X101244400Y-102209600D01*
X100741197Y-102209600D02*
X101244400Y-102209600D01*
X102645000Y-101200000D02*
X102030000Y-101200000D01*
X102645000Y-102000000D02*
X101454000Y-102000000D01*
X102030000Y-101200000D02*
X101244400Y-101985600D01*
D20*
X101840000Y-102800000D02*
X102645000Y-102800000D01*
X101249600Y-102209600D02*
X101840000Y-102800000D01*
D23*
%TO.N,RC_INPUT*%
X94480000Y-105870000D02*
X94510000Y-105900000D01*
X102645000Y-97200000D02*
X99440000Y-97200000D01*
X94510000Y-105900000D02*
X95765238Y-105900000D01*
X99440000Y-97200000D02*
X99360000Y-97280000D01*
%TD*%
M02*
