%TF.GenerationSoftware,KiCad,Pcbnew,7.0.10*%
%TF.CreationDate,2024-02-02T13:19:37-05:00*%
%TF.ProjectId,quad_radio_adapter,71756164-5f72-4616-9469-6f5f61646170,rev?*%
%TF.SameCoordinates,Original*%
%TF.FileFunction,Legend,Top*%
%TF.FilePolarity,Positive*%
%FSLAX46Y46*%
G04 Gerber Fmt 4.6, Leading zero omitted, Abs format (unit mm)*
G04 Created by KiCad (PCBNEW 7.0.10) date 2024-02-02 13:19:37*
%MOMM*%
%LPD*%
G01*
G04 APERTURE LIST*
%ADD10C,0.127000*%
%ADD11C,0.152400*%
%ADD12C,0.101600*%
%ADD13C,0.120000*%
%ADD14C,0.200000*%
G04 APERTURE END LIST*
D10*
X96649881Y-106080684D02*
X97012738Y-106080684D01*
X96831309Y-106715684D02*
X96831309Y-106080684D01*
X97224405Y-106473779D02*
X97708215Y-106473779D01*
X97103452Y-101815684D02*
X96891785Y-101513303D01*
X96740595Y-101815684D02*
X96740595Y-101180684D01*
X96740595Y-101180684D02*
X96982500Y-101180684D01*
X96982500Y-101180684D02*
X97042976Y-101210922D01*
X97042976Y-101210922D02*
X97073214Y-101241160D01*
X97073214Y-101241160D02*
X97103452Y-101301636D01*
X97103452Y-101301636D02*
X97103452Y-101392350D01*
X97103452Y-101392350D02*
X97073214Y-101452826D01*
X97073214Y-101452826D02*
X97042976Y-101483065D01*
X97042976Y-101483065D02*
X96982500Y-101513303D01*
X96982500Y-101513303D02*
X96740595Y-101513303D01*
X97375595Y-101573779D02*
X97859405Y-101573779D01*
X97617500Y-101815684D02*
X97617500Y-101331874D01*
X96216934Y-107289404D02*
X96216934Y-107501071D01*
X95884315Y-107591785D02*
X95884315Y-107289404D01*
X95884315Y-107289404D02*
X96519315Y-107289404D01*
X96519315Y-107289404D02*
X96519315Y-107591785D01*
X96519315Y-107773214D02*
X96519315Y-108136071D01*
X95884315Y-107954642D02*
X96519315Y-107954642D01*
X95884315Y-108347738D02*
X96519315Y-108347738D01*
X96216934Y-108347738D02*
X96216934Y-108710595D01*
X95884315Y-108710595D02*
X96519315Y-108710595D01*
X97103452Y-103028184D02*
X96891785Y-102725803D01*
X96740595Y-103028184D02*
X96740595Y-102393184D01*
X96740595Y-102393184D02*
X96982500Y-102393184D01*
X96982500Y-102393184D02*
X97042976Y-102423422D01*
X97042976Y-102423422D02*
X97073214Y-102453660D01*
X97073214Y-102453660D02*
X97103452Y-102514136D01*
X97103452Y-102514136D02*
X97103452Y-102604850D01*
X97103452Y-102604850D02*
X97073214Y-102665326D01*
X97073214Y-102665326D02*
X97042976Y-102695565D01*
X97042976Y-102695565D02*
X96982500Y-102725803D01*
X96982500Y-102725803D02*
X96740595Y-102725803D01*
X97375595Y-102786279D02*
X97859405Y-102786279D01*
X96740595Y-103998779D02*
X97224405Y-103998779D01*
X95884315Y-95303333D02*
X96519315Y-95303333D01*
X96519315Y-95303333D02*
X96519315Y-95545238D01*
X96519315Y-95545238D02*
X96489077Y-95605714D01*
X96489077Y-95605714D02*
X96458839Y-95635952D01*
X96458839Y-95635952D02*
X96398363Y-95666190D01*
X96398363Y-95666190D02*
X96307649Y-95666190D01*
X96307649Y-95666190D02*
X96247173Y-95635952D01*
X96247173Y-95635952D02*
X96216934Y-95605714D01*
X96216934Y-95605714D02*
X96186696Y-95545238D01*
X96186696Y-95545238D02*
X96186696Y-95303333D01*
X96519315Y-95877857D02*
X95884315Y-96029047D01*
X95884315Y-96029047D02*
X96337887Y-96150000D01*
X96337887Y-96150000D02*
X95884315Y-96270952D01*
X95884315Y-96270952D02*
X96519315Y-96422143D01*
X95884315Y-97026904D02*
X96186696Y-96815237D01*
X95884315Y-96664047D02*
X96519315Y-96664047D01*
X96519315Y-96664047D02*
X96519315Y-96905952D01*
X96519315Y-96905952D02*
X96489077Y-96966428D01*
X96489077Y-96966428D02*
X96458839Y-96996666D01*
X96458839Y-96996666D02*
X96398363Y-97026904D01*
X96398363Y-97026904D02*
X96307649Y-97026904D01*
X96307649Y-97026904D02*
X96247173Y-96996666D01*
X96247173Y-96996666D02*
X96216934Y-96966428D01*
X96216934Y-96966428D02*
X96186696Y-96905952D01*
X96186696Y-96905952D02*
X96186696Y-96664047D01*
D11*
X93211732Y-111110005D02*
X93211732Y-110398805D01*
X93211732Y-110737472D02*
X93618132Y-110737472D01*
X93618132Y-111110005D02*
X93618132Y-110398805D01*
X93956799Y-110737472D02*
X94193866Y-110737472D01*
X94295466Y-111110005D02*
X93956799Y-111110005D01*
X93956799Y-111110005D02*
X93956799Y-110398805D01*
X93956799Y-110398805D02*
X94295466Y-110398805D01*
X95006666Y-111110005D02*
X94769599Y-110771339D01*
X94600266Y-111110005D02*
X94600266Y-110398805D01*
X94600266Y-110398805D02*
X94871199Y-110398805D01*
X94871199Y-110398805D02*
X94938933Y-110432672D01*
X94938933Y-110432672D02*
X94972799Y-110466539D01*
X94972799Y-110466539D02*
X95006666Y-110534272D01*
X95006666Y-110534272D02*
X95006666Y-110635872D01*
X95006666Y-110635872D02*
X94972799Y-110703605D01*
X94972799Y-110703605D02*
X94938933Y-110737472D01*
X94938933Y-110737472D02*
X94871199Y-110771339D01*
X94871199Y-110771339D02*
X94600266Y-110771339D01*
X95311466Y-110737472D02*
X95548533Y-110737472D01*
X95650133Y-111110005D02*
X95311466Y-111110005D01*
X95311466Y-111110005D02*
X95311466Y-110398805D01*
X95311466Y-110398805D02*
X95650133Y-110398805D01*
X96293600Y-111110005D02*
X95954933Y-111110005D01*
X95954933Y-111110005D02*
X95954933Y-110398805D01*
X96530666Y-111110005D02*
X96530666Y-110398805D01*
X96869333Y-111110005D02*
X96869333Y-110398805D01*
X96869333Y-110398805D02*
X97275733Y-111110005D01*
X97275733Y-111110005D02*
X97275733Y-110398805D01*
X97614400Y-111110005D02*
X97614400Y-110398805D01*
X98020800Y-111110005D02*
X97716000Y-110703605D01*
X98020800Y-110398805D02*
X97614400Y-110805205D01*
X98833600Y-110906805D02*
X99172267Y-110906805D01*
X98765867Y-111110005D02*
X99002934Y-110398805D01*
X99002934Y-110398805D02*
X99240000Y-111110005D01*
X99477067Y-111110005D02*
X99477067Y-110398805D01*
X100222134Y-111110005D02*
X99985067Y-110771339D01*
X99815734Y-111110005D02*
X99815734Y-110398805D01*
X99815734Y-110398805D02*
X100086667Y-110398805D01*
X100086667Y-110398805D02*
X100154401Y-110432672D01*
X100154401Y-110432672D02*
X100188267Y-110466539D01*
X100188267Y-110466539D02*
X100222134Y-110534272D01*
X100222134Y-110534272D02*
X100222134Y-110635872D01*
X100222134Y-110635872D02*
X100188267Y-110703605D01*
X100188267Y-110703605D02*
X100154401Y-110737472D01*
X100154401Y-110737472D02*
X100086667Y-110771339D01*
X100086667Y-110771339D02*
X99815734Y-110771339D01*
X94566399Y-112051837D02*
X94905066Y-112051837D01*
X94498666Y-112255037D02*
X94735733Y-111543837D01*
X94735733Y-111543837D02*
X94972799Y-112255037D01*
X95209866Y-112255037D02*
X95209866Y-111543837D01*
X95209866Y-111543837D02*
X95379199Y-111543837D01*
X95379199Y-111543837D02*
X95480799Y-111577704D01*
X95480799Y-111577704D02*
X95548533Y-111645437D01*
X95548533Y-111645437D02*
X95582399Y-111713171D01*
X95582399Y-111713171D02*
X95616266Y-111848637D01*
X95616266Y-111848637D02*
X95616266Y-111950237D01*
X95616266Y-111950237D02*
X95582399Y-112085704D01*
X95582399Y-112085704D02*
X95548533Y-112153437D01*
X95548533Y-112153437D02*
X95480799Y-112221171D01*
X95480799Y-112221171D02*
X95379199Y-112255037D01*
X95379199Y-112255037D02*
X95209866Y-112255037D01*
X95887199Y-112051837D02*
X96225866Y-112051837D01*
X95819466Y-112255037D02*
X96056533Y-111543837D01*
X96056533Y-111543837D02*
X96293599Y-112255037D01*
X96530666Y-112255037D02*
X96530666Y-111543837D01*
X96530666Y-111543837D02*
X96801599Y-111543837D01*
X96801599Y-111543837D02*
X96869333Y-111577704D01*
X96869333Y-111577704D02*
X96903199Y-111611571D01*
X96903199Y-111611571D02*
X96937066Y-111679304D01*
X96937066Y-111679304D02*
X96937066Y-111780904D01*
X96937066Y-111780904D02*
X96903199Y-111848637D01*
X96903199Y-111848637D02*
X96869333Y-111882504D01*
X96869333Y-111882504D02*
X96801599Y-111916371D01*
X96801599Y-111916371D02*
X96530666Y-111916371D01*
X97140266Y-111543837D02*
X97546666Y-111543837D01*
X97343466Y-112255037D02*
X97343466Y-111543837D01*
X97783733Y-111882504D02*
X98020800Y-111882504D01*
X98122400Y-112255037D02*
X97783733Y-112255037D01*
X97783733Y-112255037D02*
X97783733Y-111543837D01*
X97783733Y-111543837D02*
X98122400Y-111543837D01*
X98833600Y-112255037D02*
X98596533Y-111916371D01*
X98427200Y-112255037D02*
X98427200Y-111543837D01*
X98427200Y-111543837D02*
X98698133Y-111543837D01*
X98698133Y-111543837D02*
X98765867Y-111577704D01*
X98765867Y-111577704D02*
X98799733Y-111611571D01*
X98799733Y-111611571D02*
X98833600Y-111679304D01*
X98833600Y-111679304D02*
X98833600Y-111780904D01*
X98833600Y-111780904D02*
X98799733Y-111848637D01*
X98799733Y-111848637D02*
X98765867Y-111882504D01*
X98765867Y-111882504D02*
X98698133Y-111916371D01*
X98698133Y-111916371D02*
X98427200Y-111916371D01*
D10*
X97391904Y-94426220D02*
X96908095Y-94426220D01*
X96649881Y-104868184D02*
X97012738Y-104868184D01*
X96831309Y-105503184D02*
X96831309Y-104868184D01*
X97224405Y-105261279D02*
X97708215Y-105261279D01*
X97466310Y-105503184D02*
X97466310Y-105019374D01*
D11*
X94914666Y-87955037D02*
X94677599Y-87616371D01*
X94508266Y-87955037D02*
X94508266Y-87243837D01*
X94508266Y-87243837D02*
X94779199Y-87243837D01*
X94779199Y-87243837D02*
X94846933Y-87277704D01*
X94846933Y-87277704D02*
X94880799Y-87311571D01*
X94880799Y-87311571D02*
X94914666Y-87379304D01*
X94914666Y-87379304D02*
X94914666Y-87480904D01*
X94914666Y-87480904D02*
X94880799Y-87548637D01*
X94880799Y-87548637D02*
X94846933Y-87582504D01*
X94846933Y-87582504D02*
X94779199Y-87616371D01*
X94779199Y-87616371D02*
X94508266Y-87616371D01*
X95219466Y-87582504D02*
X95456533Y-87582504D01*
X95558133Y-87955037D02*
X95219466Y-87955037D01*
X95219466Y-87955037D02*
X95219466Y-87243837D01*
X95219466Y-87243837D02*
X95558133Y-87243837D01*
X95761333Y-87243837D02*
X95998400Y-87955037D01*
X95998400Y-87955037D02*
X96235466Y-87243837D01*
X96472533Y-87887304D02*
X96506400Y-87921171D01*
X96506400Y-87921171D02*
X96472533Y-87955037D01*
X96472533Y-87955037D02*
X96438666Y-87921171D01*
X96438666Y-87921171D02*
X96472533Y-87887304D01*
X96472533Y-87887304D02*
X96472533Y-87955037D01*
X97488534Y-87243837D02*
X97556267Y-87243837D01*
X97556267Y-87243837D02*
X97624000Y-87277704D01*
X97624000Y-87277704D02*
X97657867Y-87311571D01*
X97657867Y-87311571D02*
X97691734Y-87379304D01*
X97691734Y-87379304D02*
X97725600Y-87514771D01*
X97725600Y-87514771D02*
X97725600Y-87684104D01*
X97725600Y-87684104D02*
X97691734Y-87819571D01*
X97691734Y-87819571D02*
X97657867Y-87887304D01*
X97657867Y-87887304D02*
X97624000Y-87921171D01*
X97624000Y-87921171D02*
X97556267Y-87955037D01*
X97556267Y-87955037D02*
X97488534Y-87955037D01*
X97488534Y-87955037D02*
X97420800Y-87921171D01*
X97420800Y-87921171D02*
X97386934Y-87887304D01*
X97386934Y-87887304D02*
X97353067Y-87819571D01*
X97353067Y-87819571D02*
X97319200Y-87684104D01*
X97319200Y-87684104D02*
X97319200Y-87514771D01*
X97319200Y-87514771D02*
X97353067Y-87379304D01*
X97353067Y-87379304D02*
X97386934Y-87311571D01*
X97386934Y-87311571D02*
X97420800Y-87277704D01*
X97420800Y-87277704D02*
X97488534Y-87243837D01*
D10*
X98120200Y-89284979D02*
X98604010Y-89284979D01*
X98362105Y-89526884D02*
X98362105Y-89043074D01*
X98845914Y-88891884D02*
X99269247Y-88891884D01*
X99269247Y-88891884D02*
X98997104Y-89526884D01*
X99511152Y-89466407D02*
X99541390Y-89496646D01*
X99541390Y-89496646D02*
X99511152Y-89526884D01*
X99511152Y-89526884D02*
X99480914Y-89496646D01*
X99480914Y-89496646D02*
X99511152Y-89466407D01*
X99511152Y-89466407D02*
X99511152Y-89526884D01*
X100115914Y-88891884D02*
X99813533Y-88891884D01*
X99813533Y-88891884D02*
X99783295Y-89194265D01*
X99783295Y-89194265D02*
X99813533Y-89164026D01*
X99813533Y-89164026D02*
X99874009Y-89133788D01*
X99874009Y-89133788D02*
X100025200Y-89133788D01*
X100025200Y-89133788D02*
X100085676Y-89164026D01*
X100085676Y-89164026D02*
X100115914Y-89194265D01*
X100115914Y-89194265D02*
X100146152Y-89254741D01*
X100146152Y-89254741D02*
X100146152Y-89405931D01*
X100146152Y-89405931D02*
X100115914Y-89466407D01*
X100115914Y-89466407D02*
X100085676Y-89496646D01*
X100085676Y-89496646D02*
X100025200Y-89526884D01*
X100025200Y-89526884D02*
X99874009Y-89526884D01*
X99874009Y-89526884D02*
X99813533Y-89496646D01*
X99813533Y-89496646D02*
X99783295Y-89466407D01*
X100327581Y-88891884D02*
X100539247Y-89526884D01*
X100539247Y-89526884D02*
X100750914Y-88891884D01*
X96908095Y-93073779D02*
X97391905Y-93073779D01*
X97150000Y-93315684D02*
X97150000Y-92831874D01*
D12*
X99555333Y-97949726D02*
X99385999Y-97707821D01*
X99265047Y-97949726D02*
X99265047Y-97441726D01*
X99265047Y-97441726D02*
X99458571Y-97441726D01*
X99458571Y-97441726D02*
X99506952Y-97465916D01*
X99506952Y-97465916D02*
X99531142Y-97490107D01*
X99531142Y-97490107D02*
X99555333Y-97538488D01*
X99555333Y-97538488D02*
X99555333Y-97611059D01*
X99555333Y-97611059D02*
X99531142Y-97659440D01*
X99531142Y-97659440D02*
X99506952Y-97683631D01*
X99506952Y-97683631D02*
X99458571Y-97707821D01*
X99458571Y-97707821D02*
X99265047Y-97707821D01*
X99748856Y-97490107D02*
X99773047Y-97465916D01*
X99773047Y-97465916D02*
X99821428Y-97441726D01*
X99821428Y-97441726D02*
X99942380Y-97441726D01*
X99942380Y-97441726D02*
X99990761Y-97465916D01*
X99990761Y-97465916D02*
X100014952Y-97490107D01*
X100014952Y-97490107D02*
X100039142Y-97538488D01*
X100039142Y-97538488D02*
X100039142Y-97586869D01*
X100039142Y-97586869D02*
X100014952Y-97659440D01*
X100014952Y-97659440D02*
X99724666Y-97949726D01*
X99724666Y-97949726D02*
X100039142Y-97949726D01*
D10*
X98801766Y-99413682D02*
X98771528Y-99443921D01*
X98771528Y-99443921D02*
X98680814Y-99474159D01*
X98680814Y-99474159D02*
X98620338Y-99474159D01*
X98620338Y-99474159D02*
X98529623Y-99443921D01*
X98529623Y-99443921D02*
X98469147Y-99383444D01*
X98469147Y-99383444D02*
X98438909Y-99322968D01*
X98438909Y-99322968D02*
X98408671Y-99202016D01*
X98408671Y-99202016D02*
X98408671Y-99111301D01*
X98408671Y-99111301D02*
X98438909Y-98990349D01*
X98438909Y-98990349D02*
X98469147Y-98929873D01*
X98469147Y-98929873D02*
X98529623Y-98869397D01*
X98529623Y-98869397D02*
X98620338Y-98839159D01*
X98620338Y-98839159D02*
X98680814Y-98839159D01*
X98680814Y-98839159D02*
X98771528Y-98869397D01*
X98771528Y-98869397D02*
X98801766Y-98899635D01*
X99043671Y-98899635D02*
X99073909Y-98869397D01*
X99073909Y-98869397D02*
X99134385Y-98839159D01*
X99134385Y-98839159D02*
X99285576Y-98839159D01*
X99285576Y-98839159D02*
X99346052Y-98869397D01*
X99346052Y-98869397D02*
X99376290Y-98899635D01*
X99376290Y-98899635D02*
X99406528Y-98960111D01*
X99406528Y-98960111D02*
X99406528Y-99020587D01*
X99406528Y-99020587D02*
X99376290Y-99111301D01*
X99376290Y-99111301D02*
X99013433Y-99474159D01*
X99013433Y-99474159D02*
X99406528Y-99474159D01*
X98784166Y-100346682D02*
X98753928Y-100376921D01*
X98753928Y-100376921D02*
X98663214Y-100407159D01*
X98663214Y-100407159D02*
X98602738Y-100407159D01*
X98602738Y-100407159D02*
X98512023Y-100376921D01*
X98512023Y-100376921D02*
X98451547Y-100316444D01*
X98451547Y-100316444D02*
X98421309Y-100255968D01*
X98421309Y-100255968D02*
X98391071Y-100135016D01*
X98391071Y-100135016D02*
X98391071Y-100044301D01*
X98391071Y-100044301D02*
X98421309Y-99923349D01*
X98421309Y-99923349D02*
X98451547Y-99862873D01*
X98451547Y-99862873D02*
X98512023Y-99802397D01*
X98512023Y-99802397D02*
X98602738Y-99772159D01*
X98602738Y-99772159D02*
X98663214Y-99772159D01*
X98663214Y-99772159D02*
X98753928Y-99802397D01*
X98753928Y-99802397D02*
X98784166Y-99832635D01*
X98995833Y-99772159D02*
X99388928Y-99772159D01*
X99388928Y-99772159D02*
X99177261Y-100014063D01*
X99177261Y-100014063D02*
X99267976Y-100014063D01*
X99267976Y-100014063D02*
X99328452Y-100044301D01*
X99328452Y-100044301D02*
X99358690Y-100074540D01*
X99358690Y-100074540D02*
X99388928Y-100135016D01*
X99388928Y-100135016D02*
X99388928Y-100286206D01*
X99388928Y-100286206D02*
X99358690Y-100346682D01*
X99358690Y-100346682D02*
X99328452Y-100376921D01*
X99328452Y-100376921D02*
X99267976Y-100407159D01*
X99267976Y-100407159D02*
X99086547Y-100407159D01*
X99086547Y-100407159D02*
X99026071Y-100376921D01*
X99026071Y-100376921D02*
X98995833Y-100346682D01*
D12*
X103895333Y-97979726D02*
X103725999Y-97737821D01*
X103605047Y-97979726D02*
X103605047Y-97471726D01*
X103605047Y-97471726D02*
X103798571Y-97471726D01*
X103798571Y-97471726D02*
X103846952Y-97495916D01*
X103846952Y-97495916D02*
X103871142Y-97520107D01*
X103871142Y-97520107D02*
X103895333Y-97568488D01*
X103895333Y-97568488D02*
X103895333Y-97641059D01*
X103895333Y-97641059D02*
X103871142Y-97689440D01*
X103871142Y-97689440D02*
X103846952Y-97713631D01*
X103846952Y-97713631D02*
X103798571Y-97737821D01*
X103798571Y-97737821D02*
X103605047Y-97737821D01*
X104064666Y-97471726D02*
X104379142Y-97471726D01*
X104379142Y-97471726D02*
X104209809Y-97665250D01*
X104209809Y-97665250D02*
X104282380Y-97665250D01*
X104282380Y-97665250D02*
X104330761Y-97689440D01*
X104330761Y-97689440D02*
X104354952Y-97713631D01*
X104354952Y-97713631D02*
X104379142Y-97762012D01*
X104379142Y-97762012D02*
X104379142Y-97882964D01*
X104379142Y-97882964D02*
X104354952Y-97931345D01*
X104354952Y-97931345D02*
X104330761Y-97955536D01*
X104330761Y-97955536D02*
X104282380Y-97979726D01*
X104282380Y-97979726D02*
X104137237Y-97979726D01*
X104137237Y-97979726D02*
X104088856Y-97955536D01*
X104088856Y-97955536D02*
X104064666Y-97931345D01*
D10*
X99081166Y-95765759D02*
X98778785Y-95765759D01*
X98778785Y-95765759D02*
X98778785Y-95130759D01*
X99625452Y-95765759D02*
X99262595Y-95765759D01*
X99444023Y-95765759D02*
X99444023Y-95130759D01*
X99444023Y-95130759D02*
X99383547Y-95221473D01*
X99383547Y-95221473D02*
X99323071Y-95281949D01*
X99323071Y-95281949D02*
X99262595Y-95312187D01*
X96463078Y-91488333D02*
X96009507Y-91488333D01*
X96009507Y-91488333D02*
X95918793Y-91458094D01*
X95918793Y-91458094D02*
X95858317Y-91397618D01*
X95858317Y-91397618D02*
X95828078Y-91306904D01*
X95828078Y-91306904D02*
X95828078Y-91246428D01*
X96463078Y-91730238D02*
X96463078Y-92123333D01*
X96463078Y-92123333D02*
X96221174Y-91911666D01*
X96221174Y-91911666D02*
X96221174Y-92002381D01*
X96221174Y-92002381D02*
X96190936Y-92062857D01*
X96190936Y-92062857D02*
X96160697Y-92093095D01*
X96160697Y-92093095D02*
X96100221Y-92123333D01*
X96100221Y-92123333D02*
X95949031Y-92123333D01*
X95949031Y-92123333D02*
X95888555Y-92093095D01*
X95888555Y-92093095D02*
X95858317Y-92062857D01*
X95858317Y-92062857D02*
X95828078Y-92002381D01*
X95828078Y-92002381D02*
X95828078Y-91820952D01*
X95828078Y-91820952D02*
X95858317Y-91760476D01*
X95858317Y-91760476D02*
X95888555Y-91730238D01*
X105435366Y-106589082D02*
X105405128Y-106619321D01*
X105405128Y-106619321D02*
X105314414Y-106649559D01*
X105314414Y-106649559D02*
X105253938Y-106649559D01*
X105253938Y-106649559D02*
X105163223Y-106619321D01*
X105163223Y-106619321D02*
X105102747Y-106558844D01*
X105102747Y-106558844D02*
X105072509Y-106498368D01*
X105072509Y-106498368D02*
X105042271Y-106377416D01*
X105042271Y-106377416D02*
X105042271Y-106286701D01*
X105042271Y-106286701D02*
X105072509Y-106165749D01*
X105072509Y-106165749D02*
X105102747Y-106105273D01*
X105102747Y-106105273D02*
X105163223Y-106044797D01*
X105163223Y-106044797D02*
X105253938Y-106014559D01*
X105253938Y-106014559D02*
X105314414Y-106014559D01*
X105314414Y-106014559D02*
X105405128Y-106044797D01*
X105405128Y-106044797D02*
X105435366Y-106075035D01*
X106040128Y-106649559D02*
X105677271Y-106649559D01*
X105858699Y-106649559D02*
X105858699Y-106014559D01*
X105858699Y-106014559D02*
X105798223Y-106105273D01*
X105798223Y-106105273D02*
X105737747Y-106165749D01*
X105737747Y-106165749D02*
X105677271Y-106195987D01*
X106681309Y-93277159D02*
X106681309Y-92642159D01*
X106681309Y-92642159D02*
X106832499Y-92642159D01*
X106832499Y-92642159D02*
X106923214Y-92672397D01*
X106923214Y-92672397D02*
X106983690Y-92732873D01*
X106983690Y-92732873D02*
X107013928Y-92793349D01*
X107013928Y-92793349D02*
X107044166Y-92914301D01*
X107044166Y-92914301D02*
X107044166Y-93005016D01*
X107044166Y-93005016D02*
X107013928Y-93125968D01*
X107013928Y-93125968D02*
X106983690Y-93186444D01*
X106983690Y-93186444D02*
X106923214Y-93246921D01*
X106923214Y-93246921D02*
X106832499Y-93277159D01*
X106832499Y-93277159D02*
X106681309Y-93277159D01*
X107648928Y-93277159D02*
X107286071Y-93277159D01*
X107467499Y-93277159D02*
X107467499Y-92642159D01*
X107467499Y-92642159D02*
X107407023Y-92732873D01*
X107407023Y-92732873D02*
X107346547Y-92793349D01*
X107346547Y-92793349D02*
X107286071Y-92823587D01*
X102950119Y-105817159D02*
X102950119Y-105182159D01*
X103615357Y-105756682D02*
X103585119Y-105786921D01*
X103585119Y-105786921D02*
X103494405Y-105817159D01*
X103494405Y-105817159D02*
X103433929Y-105817159D01*
X103433929Y-105817159D02*
X103343214Y-105786921D01*
X103343214Y-105786921D02*
X103282738Y-105726444D01*
X103282738Y-105726444D02*
X103252500Y-105665968D01*
X103252500Y-105665968D02*
X103222262Y-105545016D01*
X103222262Y-105545016D02*
X103222262Y-105454301D01*
X103222262Y-105454301D02*
X103252500Y-105333349D01*
X103252500Y-105333349D02*
X103282738Y-105272873D01*
X103282738Y-105272873D02*
X103343214Y-105212397D01*
X103343214Y-105212397D02*
X103433929Y-105182159D01*
X103433929Y-105182159D02*
X103494405Y-105182159D01*
X103494405Y-105182159D02*
X103585119Y-105212397D01*
X103585119Y-105212397D02*
X103615357Y-105242635D01*
X104220119Y-105817159D02*
X103857262Y-105817159D01*
X104038690Y-105817159D02*
X104038690Y-105182159D01*
X104038690Y-105182159D02*
X103978214Y-105272873D01*
X103978214Y-105272873D02*
X103917738Y-105333349D01*
X103917738Y-105333349D02*
X103857262Y-105363587D01*
X99394166Y-107496682D02*
X99363928Y-107526921D01*
X99363928Y-107526921D02*
X99273214Y-107557159D01*
X99273214Y-107557159D02*
X99212738Y-107557159D01*
X99212738Y-107557159D02*
X99122023Y-107526921D01*
X99122023Y-107526921D02*
X99061547Y-107466444D01*
X99061547Y-107466444D02*
X99031309Y-107405968D01*
X99031309Y-107405968D02*
X99001071Y-107285016D01*
X99001071Y-107285016D02*
X99001071Y-107194301D01*
X99001071Y-107194301D02*
X99031309Y-107073349D01*
X99031309Y-107073349D02*
X99061547Y-107012873D01*
X99061547Y-107012873D02*
X99122023Y-106952397D01*
X99122023Y-106952397D02*
X99212738Y-106922159D01*
X99212738Y-106922159D02*
X99273214Y-106922159D01*
X99273214Y-106922159D02*
X99363928Y-106952397D01*
X99363928Y-106952397D02*
X99394166Y-106982635D01*
X99938452Y-107133825D02*
X99938452Y-107557159D01*
X99787261Y-106891921D02*
X99636071Y-107345492D01*
X99636071Y-107345492D02*
X100029166Y-107345492D01*
X96513078Y-99938333D02*
X96059507Y-99938333D01*
X96059507Y-99938333D02*
X95968793Y-99908094D01*
X95968793Y-99908094D02*
X95908317Y-99847618D01*
X95908317Y-99847618D02*
X95878078Y-99756904D01*
X95878078Y-99756904D02*
X95878078Y-99696428D01*
X96452602Y-100210476D02*
X96482840Y-100240714D01*
X96482840Y-100240714D02*
X96513078Y-100301190D01*
X96513078Y-100301190D02*
X96513078Y-100452381D01*
X96513078Y-100452381D02*
X96482840Y-100512857D01*
X96482840Y-100512857D02*
X96452602Y-100543095D01*
X96452602Y-100543095D02*
X96392126Y-100573333D01*
X96392126Y-100573333D02*
X96331650Y-100573333D01*
X96331650Y-100573333D02*
X96240936Y-100543095D01*
X96240936Y-100543095D02*
X95878078Y-100180238D01*
X95878078Y-100180238D02*
X95878078Y-100573333D01*
X101894166Y-106997159D02*
X101682499Y-106694778D01*
X101531309Y-106997159D02*
X101531309Y-106362159D01*
X101531309Y-106362159D02*
X101773214Y-106362159D01*
X101773214Y-106362159D02*
X101833690Y-106392397D01*
X101833690Y-106392397D02*
X101863928Y-106422635D01*
X101863928Y-106422635D02*
X101894166Y-106483111D01*
X101894166Y-106483111D02*
X101894166Y-106573825D01*
X101894166Y-106573825D02*
X101863928Y-106634301D01*
X101863928Y-106634301D02*
X101833690Y-106664540D01*
X101833690Y-106664540D02*
X101773214Y-106694778D01*
X101773214Y-106694778D02*
X101531309Y-106694778D01*
X102498928Y-106997159D02*
X102136071Y-106997159D01*
X102317499Y-106997159D02*
X102317499Y-106362159D01*
X102317499Y-106362159D02*
X102257023Y-106452873D01*
X102257023Y-106452873D02*
X102196547Y-106513349D01*
X102196547Y-106513349D02*
X102136071Y-106543587D01*
X99385966Y-93124159D02*
X99174299Y-92821778D01*
X99023109Y-93124159D02*
X99023109Y-92489159D01*
X99023109Y-92489159D02*
X99265014Y-92489159D01*
X99265014Y-92489159D02*
X99325490Y-92519397D01*
X99325490Y-92519397D02*
X99355728Y-92549635D01*
X99355728Y-92549635D02*
X99385966Y-92610111D01*
X99385966Y-92610111D02*
X99385966Y-92700825D01*
X99385966Y-92700825D02*
X99355728Y-92761301D01*
X99355728Y-92761301D02*
X99325490Y-92791540D01*
X99325490Y-92791540D02*
X99265014Y-92821778D01*
X99265014Y-92821778D02*
X99023109Y-92821778D01*
X99930252Y-92700825D02*
X99930252Y-93124159D01*
X99779061Y-92458921D02*
X99627871Y-92912492D01*
X99627871Y-92912492D02*
X100020966Y-92912492D01*
D13*
%TO.C,C2*%
X101244348Y-98251600D02*
X102666852Y-98251600D01*
X101244348Y-100071600D02*
X102666852Y-100071600D01*
%TO.C,C3*%
X99590580Y-101760000D02*
X99309420Y-101760000D01*
X99590580Y-100740000D02*
X99309420Y-100740000D01*
D11*
%TO.C,L1*%
X99949000Y-95354350D02*
X99949000Y-95552050D01*
X103403400Y-95552050D02*
X103403400Y-95354350D01*
D13*
%TO.C,D2*%
X100875200Y-91336800D02*
X100875200Y-89866800D01*
X100875200Y-89866800D02*
X98590200Y-89866800D01*
X98590200Y-91336800D02*
X100875200Y-91336800D01*
%TO.C,J3*%
X95575238Y-90790000D02*
X95575238Y-92590000D01*
X94125238Y-90790000D02*
X95575238Y-90790000D01*
X91305238Y-92060000D02*
X91305238Y-95490000D01*
X95575238Y-92590000D02*
X96565238Y-92590000D01*
X95575238Y-96760000D02*
X95575238Y-94960000D01*
X94125238Y-96760000D02*
X95575238Y-96760000D01*
%TO.C,D1*%
X107872800Y-93435200D02*
X104572800Y-93435200D01*
X107872800Y-93435200D02*
X107872800Y-98945200D01*
X104572800Y-93435200D02*
X104572800Y-98945200D01*
D10*
%TO.C,IC1*%
X101915000Y-100720000D02*
X106015000Y-100720000D01*
X101915000Y-104880000D02*
X106015000Y-104880000D01*
D14*
X101070000Y-101200000D02*
G75*
G03*
X100870000Y-101200000I-100000J0D01*
G01*
X100870000Y-101200000D02*
G75*
G03*
X101070000Y-101200000I100000J0D01*
G01*
D13*
%TO.C,C4*%
X101010000Y-103788748D02*
X101010000Y-105211252D01*
X98290000Y-103788748D02*
X98290000Y-105211252D01*
%TO.C,J2*%
X95575238Y-99090000D02*
X95575238Y-100890000D01*
X94125238Y-99090000D02*
X95575238Y-99090000D01*
X91305238Y-100360000D02*
X91305238Y-107540000D01*
X95575238Y-100890000D02*
X96565238Y-100890000D01*
X95575238Y-108810000D02*
X95575238Y-107010000D01*
X94125238Y-108810000D02*
X95575238Y-108810000D01*
%TD*%
M02*
