%TF.GenerationSoftware,KiCad,Pcbnew,7.0.10*%
%TF.CreationDate,2024-02-02T13:19:37-05:00*%
%TF.ProjectId,quad_radio_adapter,71756164-5f72-4616-9469-6f5f61646170,rev?*%
%TF.SameCoordinates,Original*%
%TF.FileFunction,Paste,Bot*%
%TF.FilePolarity,Positive*%
%FSLAX46Y46*%
G04 Gerber Fmt 4.6, Leading zero omitted, Abs format (unit mm)*
G04 Created by KiCad (PCBNEW 7.0.10) date 2024-02-02 13:19:37*
%MOMM*%
%LPD*%
G01*
G04 APERTURE LIST*
G04 Aperture macros list*
%AMRoundRect*
0 Rectangle with rounded corners*
0 $1 Rounding radius*
0 $2 $3 $4 $5 $6 $7 $8 $9 X,Y pos of 4 corners*
0 Add a 4 corners polygon primitive as box body*
4,1,4,$2,$3,$4,$5,$6,$7,$8,$9,$2,$3,0*
0 Add four circle primitives for the rounded corners*
1,1,$1+$1,$2,$3*
1,1,$1+$1,$4,$5*
1,1,$1+$1,$6,$7*
1,1,$1+$1,$8,$9*
0 Add four rect primitives between the rounded corners*
20,1,$1+$1,$2,$3,$4,$5,0*
20,1,$1+$1,$4,$5,$6,$7,0*
20,1,$1+$1,$6,$7,$8,$9,0*
20,1,$1+$1,$8,$9,$2,$3,0*%
G04 Aperture macros list end*
%ADD10C,0.010000*%
%ADD11RoundRect,0.150000X0.700000X-0.150000X0.700000X0.150000X-0.700000X0.150000X-0.700000X-0.150000X0*%
%ADD12RoundRect,0.250000X1.100000X-0.250000X1.100000X0.250000X-1.100000X0.250000X-1.100000X-0.250000X0*%
G04 APERTURE END LIST*
%TO.C,J1*%
D10*
X105663000Y-96875000D02*
X105047000Y-96875000D01*
X105047000Y-96575000D01*
X105663000Y-96575000D01*
X105663000Y-96875000D01*
G36*
X105663000Y-96875000D02*
G01*
X105047000Y-96875000D01*
X105047000Y-96575000D01*
X105663000Y-96575000D01*
X105663000Y-96875000D01*
G37*
X102953000Y-96875000D02*
X102337000Y-96875000D01*
X102337000Y-96575000D01*
X102953000Y-96575000D01*
X102953000Y-96875000D01*
G36*
X102953000Y-96875000D02*
G01*
X102337000Y-96875000D01*
X102337000Y-96575000D01*
X102953000Y-96575000D01*
X102953000Y-96875000D01*
G37*
X105657400Y-97300000D02*
X105052600Y-97300000D01*
X105052600Y-97100000D01*
X105657400Y-97100000D01*
X105657400Y-97300000D01*
G36*
X105657400Y-97300000D02*
G01*
X105052600Y-97300000D01*
X105052600Y-97100000D01*
X105657400Y-97100000D01*
X105657400Y-97300000D01*
G37*
X102947400Y-97300000D02*
X102342600Y-97300000D01*
X102342600Y-97100000D01*
X102947400Y-97100000D01*
X102947400Y-97300000D01*
G36*
X102947400Y-97300000D02*
G01*
X102342600Y-97300000D01*
X102342600Y-97100000D01*
X102947400Y-97100000D01*
X102947400Y-97300000D01*
G37*
X105657400Y-97700000D02*
X105052600Y-97700000D01*
X105052600Y-97500000D01*
X105657400Y-97500000D01*
X105657400Y-97700000D01*
G36*
X105657400Y-97700000D02*
G01*
X105052600Y-97700000D01*
X105052600Y-97500000D01*
X105657400Y-97500000D01*
X105657400Y-97700000D01*
G37*
X102947400Y-97700000D02*
X102342600Y-97700000D01*
X102342600Y-97500000D01*
X102947400Y-97500000D01*
X102947400Y-97700000D01*
G36*
X102947400Y-97700000D02*
G01*
X102342600Y-97700000D01*
X102342600Y-97500000D01*
X102947400Y-97500000D01*
X102947400Y-97700000D01*
G37*
X105657400Y-98100000D02*
X105052600Y-98100000D01*
X105052600Y-97900000D01*
X105657400Y-97900000D01*
X105657400Y-98100000D01*
G36*
X105657400Y-98100000D02*
G01*
X105052600Y-98100000D01*
X105052600Y-97900000D01*
X105657400Y-97900000D01*
X105657400Y-98100000D01*
G37*
X102947400Y-98100000D02*
X102342600Y-98100000D01*
X102342600Y-97900000D01*
X102947400Y-97900000D01*
X102947400Y-98100000D01*
G36*
X102947400Y-98100000D02*
G01*
X102342600Y-98100000D01*
X102342600Y-97900000D01*
X102947400Y-97900000D01*
X102947400Y-98100000D01*
G37*
X105657400Y-98500000D02*
X105052600Y-98500000D01*
X105052600Y-98300000D01*
X105657400Y-98300000D01*
X105657400Y-98500000D01*
G36*
X105657400Y-98500000D02*
G01*
X105052600Y-98500000D01*
X105052600Y-98300000D01*
X105657400Y-98300000D01*
X105657400Y-98500000D01*
G37*
X102947400Y-98500000D02*
X102342600Y-98500000D01*
X102342600Y-98300000D01*
X102947400Y-98300000D01*
X102947400Y-98500000D01*
G36*
X102947400Y-98500000D02*
G01*
X102342600Y-98500000D01*
X102342600Y-98300000D01*
X102947400Y-98300000D01*
X102947400Y-98500000D01*
G37*
X105657400Y-98900000D02*
X105052600Y-98900000D01*
X105052600Y-98700000D01*
X105657400Y-98700000D01*
X105657400Y-98900000D01*
G36*
X105657400Y-98900000D02*
G01*
X105052600Y-98900000D01*
X105052600Y-98700000D01*
X105657400Y-98700000D01*
X105657400Y-98900000D01*
G37*
X102947400Y-98900000D02*
X102342600Y-98900000D01*
X102342600Y-98700000D01*
X102947400Y-98700000D01*
X102947400Y-98900000D01*
G36*
X102947400Y-98900000D02*
G01*
X102342600Y-98900000D01*
X102342600Y-98700000D01*
X102947400Y-98700000D01*
X102947400Y-98900000D01*
G37*
X105657400Y-99300000D02*
X105052600Y-99300000D01*
X105052600Y-99100000D01*
X105657400Y-99100000D01*
X105657400Y-99300000D01*
G36*
X105657400Y-99300000D02*
G01*
X105052600Y-99300000D01*
X105052600Y-99100000D01*
X105657400Y-99100000D01*
X105657400Y-99300000D01*
G37*
X102947400Y-99300000D02*
X102342600Y-99300000D01*
X102342600Y-99100000D01*
X102947400Y-99100000D01*
X102947400Y-99300000D01*
G36*
X102947400Y-99300000D02*
G01*
X102342600Y-99300000D01*
X102342600Y-99100000D01*
X102947400Y-99100000D01*
X102947400Y-99300000D01*
G37*
X105657400Y-99700000D02*
X105052600Y-99700000D01*
X105052600Y-99500000D01*
X105657400Y-99500000D01*
X105657400Y-99700000D01*
G36*
X105657400Y-99700000D02*
G01*
X105052600Y-99700000D01*
X105052600Y-99500000D01*
X105657400Y-99500000D01*
X105657400Y-99700000D01*
G37*
X102947400Y-99700000D02*
X102342600Y-99700000D01*
X102342600Y-99500000D01*
X102947400Y-99500000D01*
X102947400Y-99700000D01*
G36*
X102947400Y-99700000D02*
G01*
X102342600Y-99700000D01*
X102342600Y-99500000D01*
X102947400Y-99500000D01*
X102947400Y-99700000D01*
G37*
X105657400Y-100100000D02*
X105052600Y-100100000D01*
X105052600Y-99900000D01*
X105657400Y-99900000D01*
X105657400Y-100100000D01*
G36*
X105657400Y-100100000D02*
G01*
X105052600Y-100100000D01*
X105052600Y-99900000D01*
X105657400Y-99900000D01*
X105657400Y-100100000D01*
G37*
X102947400Y-100100000D02*
X102342600Y-100100000D01*
X102342600Y-99900000D01*
X102947400Y-99900000D01*
X102947400Y-100100000D01*
G36*
X102947400Y-100100000D02*
G01*
X102342600Y-100100000D01*
X102342600Y-99900000D01*
X102947400Y-99900000D01*
X102947400Y-100100000D01*
G37*
X105657400Y-100500000D02*
X105052600Y-100500000D01*
X105052600Y-100300000D01*
X105657400Y-100300000D01*
X105657400Y-100500000D01*
G36*
X105657400Y-100500000D02*
G01*
X105052600Y-100500000D01*
X105052600Y-100300000D01*
X105657400Y-100300000D01*
X105657400Y-100500000D01*
G37*
X102947400Y-100500000D02*
X102342600Y-100500000D01*
X102342600Y-100300000D01*
X102947400Y-100300000D01*
X102947400Y-100500000D01*
G36*
X102947400Y-100500000D02*
G01*
X102342600Y-100500000D01*
X102342600Y-100300000D01*
X102947400Y-100300000D01*
X102947400Y-100500000D01*
G37*
X105657400Y-100900000D02*
X105052600Y-100900000D01*
X105052600Y-100700000D01*
X105657400Y-100700000D01*
X105657400Y-100900000D01*
G36*
X105657400Y-100900000D02*
G01*
X105052600Y-100900000D01*
X105052600Y-100700000D01*
X105657400Y-100700000D01*
X105657400Y-100900000D01*
G37*
X102947400Y-100900000D02*
X102342600Y-100900000D01*
X102342600Y-100700000D01*
X102947400Y-100700000D01*
X102947400Y-100900000D01*
G36*
X102947400Y-100900000D02*
G01*
X102342600Y-100900000D01*
X102342600Y-100700000D01*
X102947400Y-100700000D01*
X102947400Y-100900000D01*
G37*
X105657400Y-101300000D02*
X105052600Y-101300000D01*
X105052600Y-101100000D01*
X105657400Y-101100000D01*
X105657400Y-101300000D01*
G36*
X105657400Y-101300000D02*
G01*
X105052600Y-101300000D01*
X105052600Y-101100000D01*
X105657400Y-101100000D01*
X105657400Y-101300000D01*
G37*
X102947400Y-101300000D02*
X102342600Y-101300000D01*
X102342600Y-101100000D01*
X102947400Y-101100000D01*
X102947400Y-101300000D01*
G36*
X102947400Y-101300000D02*
G01*
X102342600Y-101300000D01*
X102342600Y-101100000D01*
X102947400Y-101100000D01*
X102947400Y-101300000D01*
G37*
X105657400Y-101700000D02*
X105052600Y-101700000D01*
X105052600Y-101500000D01*
X105657400Y-101500000D01*
X105657400Y-101700000D01*
G36*
X105657400Y-101700000D02*
G01*
X105052600Y-101700000D01*
X105052600Y-101500000D01*
X105657400Y-101500000D01*
X105657400Y-101700000D01*
G37*
X102947400Y-101700000D02*
X102342600Y-101700000D01*
X102342600Y-101500000D01*
X102947400Y-101500000D01*
X102947400Y-101700000D01*
G36*
X102947400Y-101700000D02*
G01*
X102342600Y-101700000D01*
X102342600Y-101500000D01*
X102947400Y-101500000D01*
X102947400Y-101700000D01*
G37*
X105657400Y-102100000D02*
X105052600Y-102100000D01*
X105052600Y-101900000D01*
X105657400Y-101900000D01*
X105657400Y-102100000D01*
G36*
X105657400Y-102100000D02*
G01*
X105052600Y-102100000D01*
X105052600Y-101900000D01*
X105657400Y-101900000D01*
X105657400Y-102100000D01*
G37*
X102947400Y-102100000D02*
X102342600Y-102100000D01*
X102342600Y-101900000D01*
X102947400Y-101900000D01*
X102947400Y-102100000D01*
G36*
X102947400Y-102100000D02*
G01*
X102342600Y-102100000D01*
X102342600Y-101900000D01*
X102947400Y-101900000D01*
X102947400Y-102100000D01*
G37*
X105657400Y-102500000D02*
X105052600Y-102500000D01*
X105052600Y-102300000D01*
X105657400Y-102300000D01*
X105657400Y-102500000D01*
G36*
X105657400Y-102500000D02*
G01*
X105052600Y-102500000D01*
X105052600Y-102300000D01*
X105657400Y-102300000D01*
X105657400Y-102500000D01*
G37*
X102947400Y-102500000D02*
X102342600Y-102500000D01*
X102342600Y-102300000D01*
X102947400Y-102300000D01*
X102947400Y-102500000D01*
G36*
X102947400Y-102500000D02*
G01*
X102342600Y-102500000D01*
X102342600Y-102300000D01*
X102947400Y-102300000D01*
X102947400Y-102500000D01*
G37*
X105657400Y-102900000D02*
X105052600Y-102900000D01*
X105052600Y-102700000D01*
X105657400Y-102700000D01*
X105657400Y-102900000D01*
G36*
X105657400Y-102900000D02*
G01*
X105052600Y-102900000D01*
X105052600Y-102700000D01*
X105657400Y-102700000D01*
X105657400Y-102900000D01*
G37*
X102947400Y-102900000D02*
X102342600Y-102900000D01*
X102342600Y-102700000D01*
X102947400Y-102700000D01*
X102947400Y-102900000D01*
G36*
X102947400Y-102900000D02*
G01*
X102342600Y-102900000D01*
X102342600Y-102700000D01*
X102947400Y-102700000D01*
X102947400Y-102900000D01*
G37*
X105663000Y-103425000D02*
X105047000Y-103425000D01*
X105047000Y-103125000D01*
X105663000Y-103125000D01*
X105663000Y-103425000D01*
G36*
X105663000Y-103425000D02*
G01*
X105047000Y-103425000D01*
X105047000Y-103125000D01*
X105663000Y-103125000D01*
X105663000Y-103425000D01*
G37*
X102953000Y-103425000D02*
X102337000Y-103425000D01*
X102337000Y-103125000D01*
X102953000Y-103125000D01*
X102953000Y-103425000D01*
G36*
X102953000Y-103425000D02*
G01*
X102337000Y-103425000D01*
X102337000Y-103125000D01*
X102953000Y-103125000D01*
X102953000Y-103425000D01*
G37*
%TD*%
D11*
%TO.C,J4*%
X95765238Y-105900000D03*
X95765238Y-104650000D03*
X95765238Y-103400000D03*
X95765238Y-102150000D03*
D12*
X92565238Y-107750000D03*
X92565238Y-100300000D03*
%TD*%
D11*
%TO.C,J5*%
X95665238Y-95850000D03*
X95665238Y-94600000D03*
X95665238Y-93350000D03*
D12*
X92465238Y-97700000D03*
X92465238Y-91500000D03*
%TD*%
M02*
