M48
; DRILL file {KiCad 7.0.10} date Fri Feb  2 13:19:40 2024
; FORMAT={-:-/ absolute / inch / decimal}
; #@! TF.CreationDate,2024-02-02T13:19:40-05:00
; #@! TF.GenerationSoftware,Kicad,Pcbnew,7.0.10
; #@! TF.FileFunction,Plated,1,6,PTH
FMAT,2
INCH
; #@! TA.AperFunction,Plated,PTH,ViaDrill
T1C0.0079
; #@! TA.AperFunction,Plated,PTH,ViaDrill
T2C0.0118
; #@! TA.AperFunction,Plated,PTH,ComponentDrill
T3C0.0866
%
G90
G05
T1
X3.711Y-3.674
X3.713Y-3.718
X3.717Y-4.119
X3.718Y-4.021
X3.718Y-4.091
X3.7197Y-4.1681
X3.811Y-3.775
X3.8268Y-4.0074
X3.8268Y-4.03
X3.8366Y-4.1831
X3.855Y-4.2
X3.872Y-3.822
X3.8783Y-3.622
X3.884Y-3.956
X3.9118Y-3.8299
X3.9662Y-4.024
X3.986Y-4.024
X4.01Y-3.843
X4.01Y-3.921
X4.059Y-4.095
X4.0804Y-4.0941
X4.081Y-4.035
X4.0813Y-4.0552
X4.0813Y-4.074
X4.082Y-4.013
X4.097Y-3.808
X4.098Y-3.996
X4.193Y-3.81
X4.1976Y-4.1358
X4.198Y-3.9843
X4.2Y-3.96
X4.213Y-3.831
X4.24Y-4.08
T2
X3.8886Y-4.0988
X4.2421Y-4.0283
T3
X4.0945Y-3.5827
X4.0945Y-4.2913
M30
